<svg xmlns="http://www.w3.org/2000/svg" width="44" height="44" viewBox="0 0 44 44"><rect width="44" height="44" rx="8" fill="#0A0A0B"/><rect x="18" y="0.5" width="8" height="9" rx="4" ry="4" fill="#fff" transform="rotate(0 22 5)"/><rect x="24.505618350206525" y="1.7940479473081261" width="8" height="9" rx="4" ry="4" fill="#fff" transform="rotate(22.5 28.505618350206525 6.294047947308126)"/><rect x="30.020815280171306" y="5.479184719828693" width="8" height="9" rx="4" ry="4" fill="#fff" transform="rotate(45 34.020815280171306 9.979184719828693)"/><rect x="33.70595205269187" y="10.994381649793475" width="8" height="9" rx="4" ry="4" fill="#fff" transform="rotate(67.5 37.70595205269187 15.494381649793475)"/><rect x="35" y="17.5" width="8" height="9" rx="4" ry="4" fill="#fff" transform="rotate(90 39 22)"/><rect x="33.70595205269187" y="24.005618350206525" width="8" height="9" rx="4" ry="4" fill="#fff" transform="rotate(112.5 37.70595205269187 28.505618350206525)"/><rect x="30.020815280171306" y="29.520815280171306" width="8" height="9" rx="4" ry="4" fill="#fff" transform="rotate(135 34.020815280171306 34.020815280171306)"/><rect x="24.505618350206525" y="33.20595205269187" width="8" height="9" rx="4" ry="4" fill="#fff" transform="rotate(157.5 28.505618350206525 37.70595205269187)"/><rect x="18" y="34.5" width="8" height="9" rx="4" ry="4" fill="#fff" transform="rotate(180 22 39)"/><rect x="11.494381649793475" y="33.20595205269187" width="8" height="9" rx="4" ry="4" fill="#fff" transform="rotate(202.5 15.494381649793475 37.70595205269187)"/><rect x="5.979184719828693" y="29.520815280171306" width="8" height="9" rx="4" ry="4" fill="#fff" transform="rotate(225 9.979184719828693 34.020815280171306)"/><rect x="2.2940479473081297" y="24.005618350206536" width="8" height="9" rx="4" ry="4" fill="#fff" transform="rotate(247.49999999999997 6.29404794730813 28.505618350206536)"/><rect x="1" y="17.500000000000004" width="8" height="9" rx="4" ry="4" fill="#fff" transform="rotate(270 5 22.000000000000004)"/><rect x="2.294047947308128" y="10.99438164979347" width="8" height="9" rx="4" ry="4" fill="#fff" transform="rotate(292.5 6.294047947308128 15.49438164979347)"/><rect x="5.979184719828689" y="5.479184719828693" width="8" height="9" rx="4" ry="4" fill="#fff" transform="rotate(315 9.97918471982869 9.979184719828693)"/><rect x="11.494381649793464" y="1.7940479473081297" width="8" height="9" rx="4" ry="4" fill="#fff" transform="rotate(337.5 15.494381649793464 6.29404794730813)"/></svg>